<svg id="Layer_1" data-name="Layer 1" xmlns="http://www.w3.org/2000/svg" xmlns:xlink="http://www.w3.org/1999/xlink" viewBox="0 0 643.02 474.47"><defs><style>.cls-1,.cls-11,.cls-14,.cls-2,.cls-20,.cls-21,.cls-22,.cls-23,.cls-25,.cls-26,.cls-27,.cls-8{fill:none;}.cls-2{stroke:#ded9d5;stroke-width:1.97px;}.cls-11,.cls-2,.cls-22,.cls-27{stroke-miterlimit:10;}.cls-3{fill:#f8afa5;}.cls-4{fill:#ebd255;}.cls-5{fill:#05867c;}.cls-6{fill:#ededee;}.cls-7{fill:#c18cbe;}.cls-11,.cls-27,.cls-8{stroke:#fff;}.cls-14,.cls-20,.cls-21,.cls-23,.cls-25,.cls-26,.cls-8{stroke-linecap:round;stroke-linejoin:round;}.cls-8{stroke-width:1.65px;}.cls-9{fill:#fff;}.cls-10{fill:#6eccde;}.cls-11{stroke-width:1.18px;}.cls-12{clip-path:url(#clip-path);}.cls-13{fill:#8f726d;}.cls-14,.cls-20,.cls-21,.cls-23,.cls-25,.cls-26{stroke:#282828;}.cls-14{stroke-width:1.23px;}.cls-15{fill:#f2988f;}.cls-16{fill:#383060;}.cls-17{fill:#261c43;}.cls-18{fill:#e6e6e5;}.cls-19{fill:#282828;}.cls-20{stroke-width:0.99px;}.cls-21{stroke-width:1.23px;}.cls-22{stroke:#c18cbe;stroke-width:1.34px;}.cls-23{stroke-width:1.23px;}.cls-24{fill:#065784;}.cls-25{stroke-width:1.4px;}.cls-26{stroke-width:1.53px;}.cls-27{stroke-width:1.95px;}</style><clipPath id="clip-path" transform="translate(-376.04 56.03)"><rect class="cls-1" x="492.88" y="10.09" width="459.27" height="332.68"/></clipPath></defs><title>history</title><line class="cls-2" x1="70.85" y1="123.37" x2="570.22" y2="123.37"/><rect class="cls-2" x="70.85" y="90.64" width="499.37" height="308.96" rx="6.52"/><path class="cls-3" d="M479.8,51.31a4.57,4.57,0,1,1-4.57-4.56A4.57,4.57,0,0,1,479.8,51.31Z" transform="translate(-376.04 56.03)"/><path class="cls-4" d="M497.55,51.31A4.57,4.57,0,1,1,493,46.75,4.57,4.57,0,0,1,497.55,51.31Z" transform="translate(-376.04 56.03)"/><path class="cls-5" d="M515.3,51.31a4.57,4.57,0,1,1-4.57-4.56A4.56,4.56,0,0,1,515.3,51.31Z" transform="translate(-376.04 56.03)"/><rect class="cls-6" x="511.74" y="113.11" width="129.34" height="120.52" rx="5.99"/><rect class="cls-2" x="511.74" y="113.11" width="129.34" height="120.52" rx="5.99"/><rect class="cls-7" x="916.12" y="84.22" width="73.04" height="62.03" rx="6.02" transform="translate(1529.24 286.5) rotate(180)"/><polygon class="cls-8" points="593.26 181.58 564.71 181.58 559.56 181.58 559.56 158.97 593.26 158.97 593.26 164.62 593.26 181.58"/><polyline class="cls-8" points="559.56 158.97 576.41 172.25 593.26 158.97"/><rect class="cls-6" x="0.98" y="215.51" width="123.35" height="109.01" rx="5.71"/><rect class="cls-2" x="0.98" y="215.51" width="123.35" height="109.01" rx="5.71"/><rect class="cls-3" x="26.71" y="234.18" width="71.33" height="69.34" rx="6.64"/><path class="cls-9" d="M424.58,199.21a20.17,20.17,0,1,0,28.52,0A20.25,20.25,0,0,0,424.58,199.21Zm28.47,2.9h-6.42a42.29,42.29,0,0,0-2.5-6.05A18.19,18.19,0,0,1,453.05,202.11Zm-21.61,10.18a32.74,32.74,0,0,1,.95-7.82h12.9a33.27,33.27,0,0,1,1,7.82Zm14.73,2.36a38.24,38.24,0,0,1-1.39,7.82H432.9a38.24,38.24,0,0,1-1.39-7.82Zm-7.33-19.37a17.87,17.87,0,0,1,2.85.22,36.67,36.67,0,0,1,2.92,6.61H433.07A37.38,37.38,0,0,1,436,195.5,17.87,17.87,0,0,1,438.84,195.28Zm-5.29.78a42.29,42.29,0,0,0-2.5,6.05h-6.42A18.19,18.19,0,0,1,433.55,196.06ZM423,204.47h7.37a35.07,35.07,0,0,0-1,7.82h-8.66A18.1,18.1,0,0,1,423,204.47Zm0,18a18.06,18.06,0,0,1-2.33-7.82h8.7a37.86,37.86,0,0,0,1.23,7.82Zm1.61,2.36h6.68A49.9,49.9,0,0,0,433.8,231,18.26,18.26,0,0,1,424.63,224.83Zm14.21,6.83a18.66,18.66,0,0,1-2.38-.15,53.52,53.52,0,0,1-2.82-6.68H444a55.06,55.06,0,0,1-2.82,6.68A18.66,18.66,0,0,1,438.84,231.66Zm5-.7a49.9,49.9,0,0,0,2.49-6.13h6.68A18.26,18.26,0,0,1,443.88,231Zm10.78-8.49h-7.6a37.86,37.86,0,0,0,1.23-7.82H457A18.06,18.06,0,0,1,454.66,222.47ZM457,212.29h-8.66a35.64,35.64,0,0,0-1-7.82h7.36A18.1,18.1,0,0,1,457,212.29Z" transform="translate(-376.04 56.03)"/><path class="cls-7" d="M488,6.1H386.59a3.79,3.79,0,0,1-3.79-3.79h0a3.78,3.78,0,0,1,3.79-3.79H488a3.79,3.79,0,0,1,3.79,3.79h0A3.79,3.79,0,0,1,488,6.1Z" transform="translate(-376.04 56.03)"/><path class="cls-10" d="M1015.26,253.79H966a3.8,3.8,0,0,1-3.79-3.8h0A3.79,3.79,0,0,1,966,246.2h49.22a3.79,3.79,0,0,1,3.79,3.79h0A3.8,3.8,0,0,1,1015.26,253.79Z" transform="translate(-376.04 56.03)"/><rect class="cls-7" x="595.88" y="342.32" width="11.74" height="11.37" rx="2.86"/><rect class="cls-3" x="25.83" y="368.6" width="11.74" height="11.37" rx="2.86"/><rect class="cls-3" x="391.89" y="27.75" width="106.11" height="30.46" rx="3.01"/><line class="cls-11" x1="406.34" y1="38.6" x2="477.52" y2="38.6"/><line class="cls-11" x1="406.34" y1="45.91" x2="435.33" y2="45.91"/><polygon class="cls-3" points="403.44 54.76 403.44 66.64 418.37 54.76 403.44 54.76"/><path class="cls-10" d="M198.58,0h50.51a6.46,6.46,0,0,1,6.46,6.46v47.1A6.46,6.46,0,0,1,249.09,60H200.64a8.52,8.52,0,0,1-8.52-8.52v-45A6.46,6.46,0,0,1,198.58,0Z"/><path class="cls-9" d="M614.67-21.58l-3.61-3.61a3.14,3.14,0,0,0-2.32-1.09,3.31,3.31,0,0,0-2.32,1l-2.07,2.06-.38-.19a5.57,5.57,0,0,1-.65-.33,22,22,0,0,1-5.35-4.9,11.36,11.36,0,0,1-1.68-2.64c.52-.45,1-1,1.42-1.42l.58-.58a3.42,3.42,0,0,0,1.1-2.39,3.4,3.4,0,0,0-1.1-2.38l-1.81-1.81a7.55,7.55,0,0,1-.58-.64l-1.22-1.23a3.37,3.37,0,0,0-2.32-1,3.21,3.21,0,0,0-2.33,1l-2.25,2.26a5.18,5.18,0,0,0-1.49,3.16,11.92,11.92,0,0,0,.84,4.9,26.46,26.46,0,0,0,5,8.45,31.32,31.32,0,0,0,10.32,8.06,17.1,17.1,0,0,0,5.81,1.74h.45a5.13,5.13,0,0,0,3.87-1.67l.06-.07A9.76,9.76,0,0,1,613.83-16l.84-.84A3.23,3.23,0,0,0,614.67-21.58Zm-1.48,3.36-.78.77c-.45.39-.83.84-1.29,1.29a3,3,0,0,1-2.32,1h-.32a13.54,13.54,0,0,1-5-1.55,29.33,29.33,0,0,1-9.61-7.55,28,28,0,0,1-4.71-7.8,8,8,0,0,1-.77-4,2.71,2.71,0,0,1,.9-1.87l2.19-2.19a1.39,1.39,0,0,1,.91-.45,1.23,1.23,0,0,1,.9.45L594.42-39a5.65,5.65,0,0,0,.65.64l1.8,1.81a1.52,1.52,0,0,1,.45.9,1.39,1.39,0,0,1-.45.91l-.58.58-1.61,1.61-.07.06a1.43,1.43,0,0,0-.38,1.62v.06a14.77,14.77,0,0,0,2.13,3.48A24,24,0,0,0,602.22-22a5.73,5.73,0,0,0,.84.45,6.59,6.59,0,0,1,.65.32l.06.06a1.47,1.47,0,0,0,1.81-.32l2.26-2.26a1.34,1.34,0,0,1,.9-.45,1.39,1.39,0,0,1,.84.45l3.61,3.62A1.22,1.22,0,0,1,613.19-18.22Z" transform="translate(-376.04 56.03)"/><g class="cls-12"><path class="cls-13" d="M835.87,231.25l-36.5-4.86.28,3.63-31.2,4.15s-20.12,50.47-2.39,161.47h25.39l9.13-112.55h3.25l8.85,112.55h25.38C855.79,284.64,835.87,231.25,835.87,231.25Z" transform="translate(-376.04 56.03)"/><line class="cls-14" x1="412.94" y1="339.11" x2="439.43" y2="339.11"/><path class="cls-3" d="M857.19,178c-3.13-5-20.67-4.81-21.59-4.92-4.74-.55,3,37.18,12.9,70.17a11.08,11.08,0,0,0,14.93,7l.2-.08A11.09,11.09,0,0,0,870.2,238C865.51,213.06,860.8,183.77,857.19,178Z" transform="translate(-376.04 56.03)"/><polygon class="cls-15" points="485.33 247.68 462.94 256.37 460.84 245.75 484.03 239.96 485.33 247.68"/><path class="cls-15" d="M865.6,212.91s-10.61,14.25-10.1,13.6,8.32-23,8.32-23Z" transform="translate(-376.04 56.03)"/><path class="cls-3" d="M880.77,193.76l-30.41,39.41a11.18,11.18,0,0,0,2.76,16.21h0a11.19,11.19,0,0,0,15.92-4l25.32-46.71Z" transform="translate(-376.04 56.03)"/><path class="cls-3" d="M888.64,203.88a12.54,12.54,0,1,1,15.79-8.08A12.54,12.54,0,0,1,888.64,203.88Z" transform="translate(-376.04 56.03)"/><path class="cls-3" d="M901.64,184.4s3.44-3.56-2.65-6.06-13.62-1.93-18.43,9.75Z" transform="translate(-376.04 56.03)"/><path class="cls-16" d="M908,159.5,920.69,165a1.31,1.31,0,0,1,.57,1.88l-16.75,31.29a1.6,1.6,0,0,1-2,.76l-12.73-5.52a1.32,1.32,0,0,1-.58-1.88L906,160.26A1.61,1.61,0,0,1,908,159.5Z" transform="translate(-376.04 56.03)"/><path class="cls-17" d="M906.74,159l12.73,5.52a1.3,1.3,0,0,1,.58,1.87l-16.76,31.29a1.6,1.6,0,0,1-2,.77l-12.74-5.52A1.31,1.31,0,0,1,888,191l16.75-31.29A1.6,1.6,0,0,1,906.74,159Z" transform="translate(-376.04 56.03)"/><polygon class="cls-18" points="529.26 218.16 540.45 223.01 526.8 248.51 515.61 243.66 529.26 218.16"/><polygon class="cls-9" points="540.45 223.01 515.61 243.66 529.26 218.16 540.45 223.01"/><path class="cls-3" d="M895.33,177.3a20.12,20.12,0,0,1,5.39,2,2.89,2.89,0,0,1,1.4,3.2h0a2.87,2.87,0,0,1-2.42,2.15l-6.62.83s-3.45,6-8,6.62l4.14-10.45Z" transform="translate(-376.04 56.03)"/><path class="cls-10" d="M810.79,128.39c-.73,0,46.94,6.6,54.81,61l-24.74,3.8-5,41h-69l-13.71-75.82s15.29-21.91,43.69-30Z" transform="translate(-376.04 56.03)"/><line class="cls-14" x1="464.82" y1="249.16" x2="466.97" y2="225.43"/><path class="cls-3" d="M815.32,129.17V110.29H793.19v19.1a43.08,43.08,0,0,0-5.94,2.41l17.25,10.28,17.65-10.28A28.63,28.63,0,0,0,815.32,129.17Z" transform="translate(-376.04 56.03)"/><path class="cls-19" d="M793,112.59s4,10.55,14.58,9.64c9.75-.83,8.2-15.46,8.2-15.46Z" transform="translate(-376.04 56.03)"/><path class="cls-15" d="M783.34,98.56c-3.47,3.15-11.23-8.79-7.88-12.14s5.91,1.91,5.91,1.91l1.5,3.56L784,96.72l.26,1.26Z" transform="translate(-376.04 56.03)"/><path class="cls-20" d="M777.08,90.65s2.63-1.18,5,2.63" transform="translate(-376.04 56.03)"/><path class="cls-15" d="M824.35,98.2c3.19,3.43,11.93-7.81,8.87-11.43s-6.05,1.4-6.05,1.4l-1.79,3.42-1.53,4.71-.38,1.24Z" transform="translate(-376.04 56.03)"/><path class="cls-20" d="M831.25,90.85s-2.52-1.4-5.16,2.19" transform="translate(-376.04 56.03)"/><path class="cls-19" d="M777.25,75c0,15.8,12,23.29,26.9,23.29s26.9-7.49,26.9-23.29S819,48.5,804.15,48.5,777.25,59.25,777.25,75Z" transform="translate(-376.04 56.03)"/><path class="cls-3" d="M780.91,76.14a107.8,107.8,0,0,0,2.74,24c1.34,5.82,5.1,9.88,10.43,13.15l1,.6a18.29,18.29,0,0,0,18.63.2h0c5.77-3.36,9.81-7.79,11.05-14a158.2,158.2,0,0,0,2.51-23.92s2.15-24.47-22.84-24S780.91,76.14,780.91,76.14Z" transform="translate(-376.04 56.03)"/><path class="cls-21" d="M802.56,90.11V93.5a1.56,1.56,0,0,0,.11.57,1.51,1.51,0,0,0,1.8.83l1.55-.41" transform="translate(-376.04 56.03)"/><path class="cls-19" d="M798.58,77l-12.41,2.91s.56-3.16,5.64-4.31S798.58,77,798.58,77Z" transform="translate(-376.04 56.03)"/><path class="cls-19" d="M809.61,77l12,2.91s-.54-3.16-5.45-4.31S809.61,77,809.61,77Z" transform="translate(-376.04 56.03)"/><ellipse class="cls-19" cx="417.83" cy="142.12" rx="2.09" ry="2.09"/><path class="cls-19" d="M815.81,86.1A2.09,2.09,0,1,1,813.72,84,2.09,2.09,0,0,1,815.81,86.1Z" transform="translate(-376.04 56.03)"/><path class="cls-9" d="M796,98.84h16.15S805,107.55,796,98.84Z" transform="translate(-376.04 56.03)"/><circle class="cls-22" cx="792.99" cy="86.91" r="8.9" transform="translate(-205.23 642.21) rotate(-45)"/><circle class="cls-22" cx="814.86" cy="86.91" r="8.9" transform="translate(-198.82 657.68) rotate(-45)"/><path class="cls-22" d="M801.89,86.91s2.11-2,4.07,0" transform="translate(-376.04 56.03)"/><line class="cls-22" x1="408.05" y1="142.94" x2="405.24" y2="142.86"/><line class="cls-22" x1="447.73" y1="142.94" x2="450.55" y2="142.86"/><path class="cls-19" d="M826.92,84.26s-10-13.51-7.69-27.19a19.67,19.67,0,0,1,9.35,13.36C830.51,80.06,826.92,84.26,826.92,84.26Z" transform="translate(-376.04 56.03)"/><path class="cls-19" d="M780.89,85.17s11.61-15.34,9.3-29a22.84,22.84,0,0,0-10,14.28C778.28,80.06,780.89,85.17,780.89,85.17Z" transform="translate(-376.04 56.03)"/><path class="cls-19" d="M826.08,62.46s-12.83,14-47.92,11.64c0,0,5.37-20.61,22.38-22.8C800.54,51.3,820.18,49,826.08,62.46Z" transform="translate(-376.04 56.03)"/><circle class="cls-19" cx="825.18" cy="46.04" r="16.76" transform="translate(272.19 909.37) rotate(-80.83)"/><path class="cls-19" d="M620.63,231.21l-31.2-4.15.28-3.63-36.5,4.86S533.29,281.68,551,392.68H576.4l8.85-112.55h3.25l9.13,112.55H623C640.75,281.68,620.63,231.21,620.63,231.21Z" transform="translate(-376.04 56.03)"/><path class="cls-19" d="M618.14,79.37a57.77,57.77,0,0,1-10.48-18.9c-3.08-8.73-13.18-5.18-13.18-5.18s-8.42-10.84-21.09-7.06S556.32,61,556.06,71.73s-8.69,12.4-15.18,24.8c-11.46,21.89,7.83,40.32,43,35.21l0-.34a36.83,36.83,0,0,0,12.88,1.2C639,130.1,634.88,99.06,618.14,79.37Z" transform="translate(-376.04 56.03)"/><path class="cls-15" d="M604.33,95.6c3.47,3.15,11.22-8.78,7.87-12.13s-5.91,1.9-5.91,1.9l-1.49,3.56-1.13,4.83L603.4,95Z" transform="translate(-376.04 56.03)"/><path class="cls-20" d="M610.58,87.69s-2.62-1.18-5,2.63" transform="translate(-376.04 56.03)"/><path class="cls-15" d="M563.32,95.24c-3.19,3.43-11.93-7.8-8.87-11.43s6,1.4,6,1.4l1.8,3.43,1.53,4.71.37,1.23Z" transform="translate(-376.04 56.03)"/><path class="cls-20" d="M556.42,87.89s2.51-1.4,5.16,2.19" transform="translate(-376.04 56.03)"/><path class="cls-19" d="M610.41,72.08c0,15.8-12,23.29-26.89,23.29s-26.9-7.49-26.9-23.29,12-26.53,26.9-26.53S610.41,56.29,610.41,72.08Z" transform="translate(-376.04 56.03)"/><rect class="cls-3" x="196.31" y="163.35" width="22.13" height="28.65"/><path class="cls-19" d="M569.12,105.54s6.16,12.29,13.74,14.21a10.6,10.6,0,0,0,6.13-.35c2.86-1,6.47-5.26,7.09-10l.28-2.69S582.88,114.08,569.12,105.54Z" transform="translate(-376.04 56.03)"/><path class="cls-3" d="M606.76,73.18a107.73,107.73,0,0,1-2.74,24c-1.34,5.82-5.11,9.88-10.43,13.15l-1,.6a18.29,18.29,0,0,1-18.63.2h0c-5.77-3.36-9.81-7.79-11-14a158.2,158.2,0,0,1-2.51-23.92s-2.15-24.47,22.83-24S606.76,73.18,606.76,73.18Z" transform="translate(-376.04 56.03)"/><path class="cls-23" d="M581.85,88.48v2a1.56,1.56,0,0,0,.11.57,1.51,1.51,0,0,0,1.8.83l1.55-.41" transform="translate(-376.04 56.03)"/><path class="cls-19" d="M587.05,75.21l13.3,3.15s-.61-3.42-6.05-4.66S587.05,75.21,587.05,75.21Z" transform="translate(-376.04 56.03)"/><path class="cls-19" d="M580.07,75.21l-13.46,3.15s.61-3.42,6.12-4.66S580.07,75.21,580.07,75.21Z" transform="translate(-376.04 56.03)"/><path class="cls-19" d="M575.25,83.46a2.1,2.1,0,1,1-2.09-2.08A2.09,2.09,0,0,1,575.25,83.46Z" transform="translate(-376.04 56.03)"/><path class="cls-19" d="M595.1,83.46A2.09,2.09,0,1,1,593,81.38,2.08,2.08,0,0,1,595.1,83.46Z" transform="translate(-376.04 56.03)"/><path class="cls-9" d="M573.87,95.37h18.38s-1.3,5-9.63,5A9.75,9.75,0,0,1,573.87,95.37Z" transform="translate(-376.04 56.03)"/><path class="cls-19" d="M560.75,81.3s10-13.51,7.68-27.19a19.68,19.68,0,0,0-9.34,13.36C557.16,77.1,560.75,81.3,560.75,81.3Z" transform="translate(-376.04 56.03)"/><path class="cls-19" d="M606.77,80.85s-11.6-14-9.3-27.66a22.84,22.84,0,0,1,10,14.28C609.38,77.1,606.77,80.85,606.77,80.85Z" transform="translate(-376.04 56.03)"/><path class="cls-19" d="M561.59,59.5s11.46,15.41,46.55,13c0,0-4-22-21-24.16C587.13,48.34,567.49,46,561.59,59.5Z" transform="translate(-376.04 56.03)"/><path class="cls-3" d="M529.6,299c-.51.8,29.21-129.3,20.38-127.34-.8.18-16.25,1.62-18.55,6.29C524.77,191.46,520,298,520,298Z" transform="translate(-376.04 56.03)"/><path class="cls-3" d="M520,298s-4.79,22.22,13.31,24.65a2.54,2.54,0,0,0,2.74-1.68l.06-.15a2.55,2.55,0,0,0-1.41-3.15c-3-1.32-7.54-4.65-5.26-12.23,0,0,2.61-.32,4.06,4.56a2.1,2.1,0,0,0,3,1.3h0a2.1,2.1,0,0,0,1.14-2.15c-.44-3.42-2.16-11.65-8.76-13.86Z" transform="translate(-376.04 56.03)"/><path class="cls-15" d="M526.09,209.19s17.12,24.11,17.21,23.65,6-33.86,6-33.86l-20.78-9Z" transform="translate(-376.04 56.03)"/><path class="cls-5" d="M573.67,131.26c.73,0-42.32.77-50.19,55.13l24.74,3.79,5,41h69l13.71-75.82s-9.74-16.42-38.14-24.47Z" transform="translate(-376.04 56.03)"/><path class="cls-3" d="M552.63,137.83s6.08,8.08,31,8.08c24.69,0,31-8.5,31-8.5s-14.56-8.13-31.45-10.76A111.73,111.73,0,0,0,552.63,137.83Z" transform="translate(-376.04 56.03)"/><polygon class="cls-24" points="261.29 366.06 261.35 474.47 314.98 474.47 319.1 366.06 261.29 366.06"/><polygon class="cls-24" points="377.73 366.06 377.67 474.47 324.04 474.47 319.92 366.06 377.73 366.06"/><rect class="cls-24" x="292.99" y="366.06" width="55.45" height="37.66"/><line class="cls-25" x1="300.74" y1="403.72" x2="338.98" y2="403.72"/><path class="cls-3" d="M787.64,215.43c3.33,36.74-.18,63.5.79,131.09l-32,1.34-4.77-126.52Z" transform="translate(-376.04 56.03)"/><path class="cls-15" d="M755.6,244.1s19.82-1.82,33.38-10.76l-.36-7.86-33,4.49Z" transform="translate(-376.04 56.03)"/><path class="cls-7" d="M723.8,130.86s63,15.83,74.37,95.75c0,0-30.81,13.35-61.69,7.61l6.94-26.73Z" transform="translate(-376.04 56.03)"/><path class="cls-3" d="M535.74,164.09l46.88,55.36-14.34,40.4S532.65,210.31,516.64,172Z" transform="translate(-376.04 56.03)"/><path class="cls-3" d="M537.28,166.08s-16.46,9.3-20.64,5.94c-7.32-5.88-13.37-27.4-13.37-27.4s30.78-11.6,30.5-11.15S537.28,166.08,537.28,166.08Z" transform="translate(-376.04 56.03)"/><path class="cls-3" d="M537.28,166.08c-.29-1.65,6.11-19.53,8.3-26.23a3,3,0,0,0-2.34-3.73h0a3.42,3.42,0,0,0-3.81,1.56l-7.72,13.2Z" transform="translate(-376.04 56.03)"/><path class="cls-3" d="M536.72,146.76l-5.3-26.38a3.33,3.33,0,0,0-3.84-2.63h0a2.87,2.87,0,0,0-2.35,3.17l2.31,19.64Z" transform="translate(-376.04 56.03)"/><path class="cls-3" d="M526.18,137,519,118.2a3.31,3.31,0,0,0-4.09-2h0a2.85,2.85,0,0,0-1.88,3.38l5.34,21.76Z" transform="translate(-376.04 56.03)"/><path class="cls-3" d="M518.44,142.58l-9.11-18.5a3.6,3.6,0,0,0-4.62-1.77h0a3.15,3.15,0,0,0-1.63,4.16l7.26,17.47Z" transform="translate(-376.04 56.03)"/><path class="cls-3" d="M503.27,144.62l-7.14-11.34a2.56,2.56,0,0,1,1.24-3.42h0a3,3,0,0,1,3.58,1l9.39,13Z" transform="translate(-376.04 56.03)"/><path class="cls-26" d="M535.28,144.78s-10.73-1.13-11.84,13.17" transform="translate(-376.04 56.03)"/><path class="cls-3" d="M558.77,241s8.82,30.51,26.38,26.46,45-41.58,45-41.58L624,161.75l-49.32,60.69Z" transform="translate(-376.04 56.03)"/><path class="cls-15" d="M590,203.59s16.65,25.11,30.85,34l9.3-11.73-35.86-27.75Z" transform="translate(-376.04 56.03)"/><path class="cls-7" d="M662.8,129.47s-48.88,11-74.93,67.83c0,0,15.74,23.71,41,34.25l16.89-20.69Z" transform="translate(-376.04 56.03)"/><path class="cls-7" d="M662.8,129.3a122.46,122.46,0,0,0-31.1,22.78l3.77,166.06H755.8l-.39-165.2s-15.17-14.85-31.61-22.08C709.84,124.71,676.38,122.33,662.8,129.3Z" transform="translate(-376.04 56.03)"/><path class="cls-25" d="M327,232.77h33.47a0,0,0,0,1,0,0V249.5a16.74,16.74,0,0,1-16.74,16.74h0A16.74,16.74,0,0,1,327,249.5V232.77A0,0,0,0,1,327,232.77Z"/><line class="cls-25" x1="379.57" y1="290.86" x2="381.13" y2="236.54"/><line class="cls-25" x1="257.52" y1="281.81" x2="254.92" y2="234.72"/><path class="cls-19" d="M664.21,68.64l-5-24.81c-.29-2-1.07-5.14-.11-8.07,1.59-4.85,7.43-14.16,17.41-9.9l2.15,9.82s-10.36,2.1-14.52,15.65Z" transform="translate(-376.04 56.03)"/><path class="cls-19" d="M675.76,31c-.18,3.26-3.06,17.53-13.17,22.73C662.59,53.71,653.72,34.7,675.76,31Z" transform="translate(-376.04 56.03)"/><path class="cls-3" d="M711.26,124.73h0V82.59H672.41v42.14L660.85,130s2.71,17.46,31.39,17.85,31.56-17,31.56-17Z" transform="translate(-376.04 56.03)"/><path class="cls-19" d="M676.5,25.86s7.13-18.81,29.11-8.81c13.3,6.05,17,14.17,18.62,19.91a23.52,23.52,0,0,1,.59,6.71l-5.32,25L698.74,34.09l-20.09,1.59Z" transform="translate(-376.04 56.03)"/><path class="cls-15" d="M719.5,68.64s2.62-4.16,8-2.11,3,15.16-5.14,16.83A6.38,6.38,0,0,1,717.2,82S719.19,72.32,719.5,68.64Z" transform="translate(-376.04 56.03)"/><path class="cls-25" d="M726.45,71.15s-4.52-1.51-7.73,5.16" transform="translate(-376.04 56.03)"/><path class="cls-15" d="M664.21,68.64s-2.62-4.16-8-2.11-3,15.16,5.15,16.83A6.39,6.39,0,0,0,666.52,82S664.53,72.32,664.21,68.64Z" transform="translate(-376.04 56.03)"/><path class="cls-25" d="M657.26,71.15s4.53-1.51,7.74,5.16" transform="translate(-376.04 56.03)"/><path class="cls-3" d="M720,56.2c0,7.9-.77,24.45-5.63,34.27-4.57,9.22-12.11,14.18-22,14.47s-17.27-3.51-23.18-15.48-5.63-33.12-5.63-33.12,0-28.25,27.92-28.25C720.92,28.09,720,56.2,720,56.2Z" transform="translate(-376.04 56.03)"/><path class="cls-19" d="M672.7,95.36s3.26,16.5,17.62,18.4c16.53,2.18,20.94-18,20.94-18s-7.31,9.15-18.86,9.16A25.27,25.27,0,0,1,672.7,95.36Z" transform="translate(-376.04 56.03)"/><path class="cls-25" d="M689.83,67.92v6.54a2.15,2.15,0,0,0,.15.8,2.1,2.1,0,0,0,2.51,1.16l2.17-.57" transform="translate(-376.04 56.03)"/><path class="cls-19" d="M681.58,64.8A2.54,2.54,0,1,1,679,62.26,2.54,2.54,0,0,1,681.58,64.8Z" transform="translate(-376.04 56.03)"/><path class="cls-19" d="M705.41,64.8a2.54,2.54,0,1,1-2.54-2.54A2.54,2.54,0,0,1,705.41,64.8Z" transform="translate(-376.04 56.03)"/><path class="cls-19" d="M696.36,52.16l17.09,4.41s-.77-4.79-7.77-6.53S696.36,52.16,696.36,52.16Z" transform="translate(-376.04 56.03)"/><path class="cls-19" d="M685.74,52.16l-17.08,4.41s.77-4.79,7.76-6.53S685.74,52.16,685.74,52.16Z" transform="translate(-376.04 56.03)"/><path class="cls-25" d="M682.35,81.05S684.87,83,691.5,83a23.21,23.21,0,0,0,9.79-1.93" transform="translate(-376.04 56.03)"/><circle class="cls-27" cx="302.32" cy="121.57" r="10.8"/><circle class="cls-27" cx="328.85" cy="121.57" r="10.8"/><path class="cls-27" d="M689.16,65.54s2.55-2.38,4.93,0" transform="translate(-376.04 56.03)"/><line class="cls-27" x1="291.52" y1="121.57" x2="287.9" y2="121.48"/><line class="cls-27" x1="339.65" y1="121.57" x2="343.69" y2="121.51"/><path class="cls-19" d="M672.7,31.63s5.19,14.73,28.59,14.28C717.2,45.6,721,57.11,721,57.11s-2.77-25.73-3.5-25.48-24.2-6.27-24.2-6.27Z" transform="translate(-376.04 56.03)"/></g></svg>