<svg xmlns="http://www.w3.org/2000/svg" viewBox="0 0 1406.3 603.19"><defs><style>.cls-1{fill:#232f3e;}.cls-2,.cls-5,.cls-6,.cls-7,.cls-9{fill:#fff;}.cls-3{fill:#ed8123;}.cls-10,.cls-4,.cls-5,.cls-6,.cls-7,.cls-9{isolation:isolate;}.cls-5,.cls-6,.cls-7,.cls-9{font-size:137.37px;}.cls-10,.cls-5,.cls-6,.cls-7,.cls-9{font-family:Montserrat-Bold, Montserrat;font-weight:700;}.cls-5{letter-spacing:-0.07em;}.cls-6{letter-spacing:-0.08em;}.cls-7{letter-spacing:-0.14em;}.cls-8{letter-spacing:-0.11em;}.cls-9{letter-spacing:-0.07em;}.cls-10{font-size:86.38px;fill:#ed8223;letter-spacing:-0.07em;}</style></defs><title>image</title><g id="Layer_1" data-name="Layer 1"><rect class="cls-1" width="1406.3" height="603.19"/></g><g id="Layer_2" data-name="Layer 2"><rect class="cls-2" x="239.94" y="186.71" width="77.21" height="77.21" rx="7.77" transform="translate(-78.68 255.79) rotate(-43.34)"/><path class="cls-3" d="M171.64,234.88l15.71-15.21a10.37,10.37,0,0,1,14.66.23l98.66,101.89a7.61,7.61,0,0,1-.17,10.77l-14.18,13.73A15.29,15.29,0,0,1,264.7,346h0l-93.29-96.34a10.37,10.37,0,0,1,.23-14.66Z" transform="translate(0 3.17)"/><path class="cls-3" d="M266.43,344.85l-13.6-14.31a7.63,7.63,0,0,1,.28-10.77L356,222.1a10.36,10.36,0,0,1,14.65.38l15.06,15.86a10.36,10.36,0,0,1-.38,14.65L288,345.38A15.28,15.28,0,0,1,266.43,344.85Z" transform="translate(0 3.17)"/><rect class="cls-2" x="210.94" y="257.2" width="27.72" height="162.92" rx="6.79" transform="translate(-172.39 255.41) rotate(-44.15)"/><rect class="cls-2" x="241.13" y="326.18" width="173.44" height="27.72" rx="6.79" transform="translate(-144.01 321.9) rotate(-43.46)"/><g class="cls-4"><text class="cls-5" transform="translate(420.99 295.67)">MICRO</text><text class="cls-6" transform="translate(863.32 295.67)">D</text><text class="cls-7" transform="translate(965.14 295.67)">A<tspan class="cls-8" x="85.31" y="0">T</tspan></text><text class="cls-9" transform="translate(1125.06 295.67)">A</text></g><text class="cls-10" transform="translate(422.9 372.05)">INDONESIA</text></g></svg>