<svg id="Capa_1" data-name="Capa 1" xmlns="http://www.w3.org/2000/svg" viewBox="0 0 456.04 434.69"><defs><style>.cls-1{fill:#29cfa5;}</style></defs><title>cart-click</title><path class="cls-1" d="M345.62,328.19a53.25,53.25,0,1,0,53.25,53.25h0C398.36,352.26,374.8,328.19,345.62,328.19Z" transform="translate(0 0)"/><path class="cls-1" d="M439.32,74.24c-1,0-2.56-.51-4.1-.51H112.66l-5.12-34.31A45.85,45.85,0,0,0,62,0H20.5a20.5,20.5,0,0,0,0,41H62a5.43,5.43,0,0,1,5.12,4.61l31.7,216a56.13,56.13,0,0,0,55.29,47.62h213c26.63,0,49.67-19,55.3-45.06l33.28-166.4a20.24,20.24,0,0,0-16.29-23.51Z" transform="translate(0 0)"/><path class="cls-1" d="M215,378.88c-1-28.16-24.58-50.69-52.74-50.69a53.57,53.57,0,0,0-51.2,55.3,52.49,52.49,0,0,0,52.23,50.69h1C193.56,432.64,216.6,408.06,215,378.88Z" transform="translate(0 0)"/></svg>