<svg id="Capa_1" data-name="Capa 1" xmlns="http://www.w3.org/2000/svg" viewBox="0 0 456.04 434.69"><defs><style>.cls-1{fill:#20232a;}</style></defs><title>cart-hover</title><path class="cls-1" d="M345.6,328.19a53.25,53.25,0,1,0,53.25,53.25h0C398.34,352.26,374.78,328.19,345.6,328.19Z" transform="translate(0.02 0)"/><path class="cls-1" d="M439.3,74.24c-1,0-2.56-.51-4.1-.51H112.64l-5.12-34.31A45.85,45.85,0,0,0,62,0H20.48a20.5,20.5,0,0,0,0,41H62a5.43,5.43,0,0,1,5.12,4.61l31.7,216a56.13,56.13,0,0,0,55.29,47.62h213c26.63,0,49.67-18.95,55.3-45.06l33.28-166.4A20.24,20.24,0,0,0,439.4,74.26Z" transform="translate(0.02 0)"/><path class="cls-1" d="M215,378.88c-1-28.16-24.58-50.69-52.74-50.69a53.57,53.57,0,0,0-51.2,55.3,52.49,52.49,0,0,0,52.23,50.69h1C193.54,432.64,216.58,408.06,215,378.88Z" transform="translate(0.02 0)"/></svg>