<svg id="Capa_1" data-name="Capa 1" xmlns="http://www.w3.org/2000/svg" viewBox="0 0 512 490.67"><defs><style>.cls-1{fill:#9920b2;}</style></defs><title>compare-click</title><path class="cls-1" d="M490.67,405.33H433.86C424.62,374.59,396.37,352,362.67,352s-61.93,22.59-71.19,53.33H21.33a21.34,21.34,0,0,0,0,42.67H291.48c9.23,30.74,37.48,53.33,71.19,53.33S424.6,478.74,433.86,448h56.81a21.34,21.34,0,0,0,0-42.67Zm-128,53.34a32,32,0,1,1,32-32A32,32,0,0,1,362.67,458.67Z" transform="translate(0 -10.67)"/><path class="cls-1" d="M490.67,64H433.86c-9.26-30.74-37.49-53.33-71.19-53.33S300.74,33.26,291.48,64H21.33a21.34,21.34,0,0,0,0,42.67H291.48C300.74,137.41,329,160,362.67,160s61.93-22.59,71.19-53.33h56.81a21.34,21.34,0,0,0,0-42.67Zm-128,53.33a32,32,0,1,1,32-32A32,32,0,0,1,362.67,117.33Z" transform="translate(0 -10.67)"/><path class="cls-1" d="M490.67,234.67H220.52c-9.26-30.74-37.48-53.34-71.19-53.34s-61.93,22.6-71.19,53.34H21.33a21.33,21.33,0,0,0,0,42.66H78.14c9.26,30.74,37.49,53.34,71.19,53.34s61.93-22.6,71.19-53.34H490.67a21.33,21.33,0,0,0,0-42.66ZM149.33,288a32,32,0,1,1,32-32A32,32,0,0,1,149.33,288Z" transform="translate(0 -10.67)"/></svg>