<svg id="Capa_1" data-name="Capa 1" xmlns="http://www.w3.org/2000/svg" viewBox="0 0 512 452"><defs><style>.cls-1{fill:#ed0f0f;}</style></defs><title>like-click</title><path class="cls-1" d="M376,30c-27.78,0-53.26,8.8-75.71,26.17C278.77,72.82,264.44,94,256,109.44,247.56,94,233.23,72.82,211.71,56.17,189.26,38.8,163.78,30,136,30,58.47,30,0,93.42,0,177.51c0,90.86,72.94,153,183.37,247.12,18.75,16,40,34.1,62.1,53.42a16,16,0,0,0,21.06,0c22.1-19.32,43.35-37.44,62.11-53.43C439.06,330.53,512,268.37,512,177.51,512,93.42,453.53,30,376,30Z" transform="translate(0 -30)"/></svg>