<svg id="Capa_1" data-name="Capa 1" xmlns="http://www.w3.org/2000/svg" viewBox="0 0 512 452"><defs><style>.cls-1{fill:#20232a;}</style></defs><title>like-hover</title><path class="cls-1" d="M376,0c-27.78,0-53.26,8.8-75.71,26.17C278.77,42.82,264.44,64,256,79.44,247.56,64,233.23,42.82,211.71,26.17,189.26,8.8,163.78,0,136,0,58.47,0,0,63.42,0,147.51c0,90.86,72.94,153,183.37,247.12,18.75,16,40,34.1,62.1,53.42a16,16,0,0,0,21.06,0c22.1-19.32,43.35-37.44,62.11-53.43C439.06,300.53,512,238.37,512,147.51,512,63.42,453.53,0,376,0Z"/></svg>