<svg xmlns="http://www.w3.org/2000/svg" viewBox="0 0 312.51 53.62"><defs><style>.cls-1{fill:#4368b1;}.cls-2{fill:#fff;}.cls-3{fill:#fdfefe;}</style></defs><title>facebook</title><g id="Layer_1" data-name="Layer 1"><rect class="cls-1" width="312.51" height="53.62" rx="3.36"/></g><g id="Layer_2" data-name="Layer 2"><path class="cls-2" d="M166,111c0-4.64,3.06-7.32,6.59-7.32a5.91,5.91,0,0,1,4.2,1.81l-1.67,2a3.51,3.51,0,0,0-2.46-1.11c-1.92,0-3.43,1.69-3.43,4.49s1.34,4.54,3.38,4.54a3.69,3.69,0,0,0,2.73-1.31l1.66,2a5.77,5.77,0,0,1-4.51,2.05C168.91,118.12,166,115.66,166,111Z" transform="translate(-99.51 -83.79)"/><path class="cls-2" d="M178.21,112.55a5.19,5.19,0,1,1,5.17,5.57A5.21,5.21,0,0,1,178.21,112.55Zm7.12,0c0-1.84-.64-3-2-3s-1.95,1.2-1.95,3,.65,3,1.95,3S185.33,114.39,185.33,112.55Z" transform="translate(-99.51 -83.79)"/><path class="cls-2" d="M190.71,107.23h2.57l.23,1.35h.08A4.85,4.85,0,0,1,197,107c2.31,0,3.3,1.63,3.3,4.29v6.6h-3.15v-6.2c0-1.53-.41-2-1.32-2a2.71,2.71,0,0,0-2,1v7.17h-3.15Z" transform="translate(-99.51 -83.79)"/><path class="cls-2" d="M203.39,114V109.7h-1.45v-2.35l1.63-.12.37-2.82h2.6v2.82h2.55v2.47h-2.55V114c0,1.2.55,1.68,1.38,1.68a3.18,3.18,0,0,0,1-.2l.5,2.29a7.48,7.48,0,0,1-2.37.39C204.44,118.12,203.39,116.46,203.39,114Z" transform="translate(-99.51 -83.79)"/><path class="cls-2" d="M210.93,104a1.83,1.83,0,1,1,1.82,1.64A1.67,1.67,0,0,1,210.93,104Zm.24,3.2h3.15v10.63h-3.15Z" transform="translate(-99.51 -83.79)"/><path class="cls-2" d="M217.08,107.23h2.57l.23,1.35H220a4.87,4.87,0,0,1,3.41-1.61c2.32,0,3.3,1.63,3.3,4.29v6.6h-3.15v-6.2c0-1.53-.41-2-1.32-2a2.71,2.71,0,0,0-2,1v7.17h-3.15Z" transform="translate(-99.51 -83.79)"/><path class="cls-2" d="M229.24,113.83v-6.6h3.15v6.19c0,1.53.41,2,1.32,2a2.18,2.18,0,0,0,1.89-1.17v-7h3.15v10.63h-2.57l-.23-1.48h-.08a4.15,4.15,0,0,1-3.33,1.74C230.22,118.12,229.24,116.48,229.24,113.83Z" transform="translate(-99.51 -83.79)"/><path class="cls-2" d="M240.89,112.55c0-3.45,2.46-5.58,5-5.58,3,0,4.53,2.2,4.53,5.1a7.28,7.28,0,0,1-.13,1.4h-6.36a2.56,2.56,0,0,0,2.76,2.24A4.45,4.45,0,0,0,249,115l1,1.9a7,7,0,0,1-3.77,1.2A5.18,5.18,0,0,1,240.89,112.55Zm6.85-1.17c0-1.17-.51-2-1.76-2a2.11,2.11,0,0,0-2.07,2Z" transform="translate(-99.51 -83.79)"/><path class="cls-2" d="M256,107.23h3.13l1,4.92c.18,1,.3,2.08.48,3.16h.08c.19-1.08.38-2.15.63-3.16l1.16-4.92h2.74l1.19,4.92c.26,1,.44,2.08.67,3.16h.08c.19-1.08.3-2.11.49-3.16l1-4.92h2.91l-2.54,10.63h-3.69l-1-4.25c-.2-1-.38-2-.57-3.11h-.09c-.18,1.15-.33,2.13-.54,3.12l-.93,4.24h-3.6Z" transform="translate(-99.51 -83.79)"/><path class="cls-2" d="M273.27,104a1.84,1.84,0,1,1,1.82,1.64A1.68,1.68,0,0,1,273.27,104Zm.24,3.2h3.15v10.63h-3.15Z" transform="translate(-99.51 -83.79)"/><path class="cls-2" d="M279.85,114V109.7H278.4v-2.35l1.63-.12.37-2.82H283v2.82h2.55v2.47H283V114c0,1.2.55,1.68,1.38,1.68a3.18,3.18,0,0,0,1-.2l.5,2.29a7.48,7.48,0,0,1-2.37.39C280.9,118.12,279.85,116.46,279.85,114Z" transform="translate(-99.51 -83.79)"/><path class="cls-2" d="M287.63,102.85h3.15v3.67l-.14,1.92a4.82,4.82,0,0,1,3.28-1.47c2.31,0,3.3,1.63,3.3,4.29v6.6h-3.15v-6.2c0-1.53-.41-2-1.32-2a2.71,2.71,0,0,0-2,1v7.17h-3.15Z" transform="translate(-99.51 -83.79)"/><path class="cls-2" d="M304.41,103.9h8.81v2.64h-5.65v3.24h4.83v2.65h-4.83v5.43h-3.16Z" transform="translate(-99.51 -83.79)"/><path class="cls-2" d="M314.07,114.91c0-2.24,1.79-3.45,6-3.9a1.47,1.47,0,0,0-1.68-1.53,5.79,5.79,0,0,0-2.81,1l-1.12-2.07A8.73,8.73,0,0,1,319,107c2.71,0,4.22,1.55,4.22,4.81v6.08h-2.57l-.23-1.09h-.08a4.63,4.63,0,0,1-3.09,1.35A3.07,3.07,0,0,1,314.07,114.91Zm6-.14v-1.86c-2.24.31-3,1-3,1.75s.47,1,1.22,1A2.39,2.39,0,0,0,320.06,114.77Z" transform="translate(-99.51 -83.79)"/><path class="cls-2" d="M325.24,112.55a5.35,5.35,0,0,1,5.53-5.58,4.62,4.62,0,0,1,3.11,1.15l-1.49,2a2.15,2.15,0,0,0-1.44-.63c-1.51,0-2.49,1.2-2.49,3s1,3,2.38,3a3.17,3.17,0,0,0,1.92-.78l1.23,2.06a5.32,5.32,0,0,1-3.5,1.27C327.52,118.12,325.24,116.07,325.24,112.55Z" transform="translate(-99.51 -83.79)"/><path class="cls-2" d="M334.64,112.55c0-3.45,2.46-5.58,5-5.58,3,0,4.53,2.2,4.53,5.1a7.28,7.28,0,0,1-.13,1.4h-6.36a2.56,2.56,0,0,0,2.76,2.24,4.45,4.45,0,0,0,2.3-.69l1,1.9a7,7,0,0,1-3.77,1.2A5.18,5.18,0,0,1,334.64,112.55Zm6.85-1.17c0-1.17-.51-2-1.77-2a2.11,2.11,0,0,0-2.06,2Z" transform="translate(-99.51 -83.79)"/><path class="cls-2" d="M349.16,116.72h-.08l-.26,1.14h-2.46v-15h3.14v3.67l-.07,1.63a4.31,4.31,0,0,1,2.81-1.18c2.57,0,4.17,2.13,4.17,5.39,0,3.66-2.17,5.76-4.48,5.76A3.83,3.83,0,0,1,349.16,116.72Zm4-4.31c0-1.91-.59-2.86-1.85-2.86a2.45,2.45,0,0,0-1.83,1v4.37a2.59,2.59,0,0,0,1.7.67C352.3,115.54,353.18,114.61,353.18,112.41Z" transform="translate(-99.51 -83.79)"/><path class="cls-2" d="M358,112.55a5.19,5.19,0,1,1,5.18,5.57A5.22,5.22,0,0,1,358,112.55Zm7.13,0c0-1.84-.65-3-1.95-3s-1.95,1.2-1.95,3,.65,3,1.95,3S365.14,114.39,365.14,112.55Z" transform="translate(-99.51 -83.79)"/><path class="cls-2" d="M369.9,112.55a5.19,5.19,0,1,1,5.18,5.57A5.22,5.22,0,0,1,369.9,112.55Zm7.13,0c0-1.84-.65-3-1.95-3s-1.95,1.2-1.95,3,.65,3,1.95,3S377,114.39,377,112.55Z" transform="translate(-99.51 -83.79)"/><path class="cls-2" d="M382.24,102.85h3.08v8.6h.08l3.37-4.22h3.42l-3.73,4.38,4,6.25h-3.41l-2.39-4.15-1.35,1.53v2.62h-3.08Z" transform="translate(-99.51 -83.79)"/><path class="cls-3" d="M146.3,91.31H112.38a2.1,2.1,0,0,0-2.1,2.1v33.91a2.11,2.11,0,0,0,2.11,2.11H146.3a2.11,2.11,0,0,0,2.1-2.11h0V93.41A2.1,2.1,0,0,0,146.3,91.31Z" transform="translate(-99.51 -83.79)"/><path class="cls-1" d="M137.6,130.43V115.68h5l.75-5.77H137.6v-3.67c0-1.67.46-2.8,2.85-2.8h3V98.29a40.24,40.24,0,0,0-4.44-.23c-4.39,0-7.4,2.68-7.4,7.61v4.24h-4.95v5.77h4.95v14.75Z" transform="translate(-99.51 -83.79)"/></g></svg>