<svg xmlns="http://www.w3.org/2000/svg" viewBox="0 0 313.51 54.62"><defs><style>.cls-1{fill:#fff;stroke:#282828;stroke-miterlimit:10;}.cls-2{fill:#4a494a;}.cls-3{fill:#f9bb16;}.cls-4{fill:#6287c5;}.cls-5{fill:#2fb44a;}.cls-6{fill:#ef4438;}</style></defs><title>google</title><g id="Layer_2" data-name="Layer 2"><rect class="cls-1" x="0.5" y="0.5" width="312.51" height="53.62" rx="3.36"/><path class="cls-2" d="M140.19-79.21c0-4.64,3.06-7.32,6.59-7.32a5.89,5.89,0,0,1,4.2,1.81l-1.66,2a3.53,3.53,0,0,0-2.47-1.11c-1.91,0-3.43,1.69-3.43,4.49s1.34,4.54,3.38,4.54a3.67,3.67,0,0,0,2.73-1.31l1.67,2a5.76,5.76,0,0,1-4.51,2C143.15-72.06,140.19-74.51,140.19-79.21Z" transform="translate(-62.24 104.88)"/><path class="cls-2" d="M152.44-77.62a5.22,5.22,0,0,1,5.18-5.58,5.21,5.21,0,0,1,5.17,5.58,5.2,5.2,0,0,1-5.17,5.56A5.21,5.21,0,0,1,152.44-77.62Zm7.13,0c0-1.84-.65-3-1.95-3s-2,1.2-2,3,.64,3,2,3S159.57-75.78,159.57-77.62Z" transform="translate(-62.24 104.88)"/><path class="cls-2" d="M165-82.94h2.57l.22,1.34h.08a4.92,4.92,0,0,1,3.42-1.6c2.31,0,3.29,1.63,3.29,4.29v6.6h-3.15v-6.2c0-1.53-.41-2-1.32-2a2.68,2.68,0,0,0-2,1v7.17H165Z" transform="translate(-62.24 104.88)"/><path class="cls-2" d="M177.63-76.18v-4.29h-1.45v-2.35l1.62-.12.37-2.82h2.61v2.82h2.54v2.47h-2.54v4.26c0,1.2.54,1.68,1.37,1.68a3.18,3.18,0,0,0,1-.2l.5,2.29a7.45,7.45,0,0,1-2.36.38C178.67-72.06,177.63-73.71,177.63-76.18Z" transform="translate(-62.24 104.88)"/><path class="cls-2" d="M185.16-86.14A1.68,1.68,0,0,1,187-87.79a1.68,1.68,0,0,1,1.83,1.65A1.68,1.68,0,0,1,187-84.5,1.68,1.68,0,0,1,185.16-86.14Zm.25,3.2h3.15v10.63h-3.15Z" transform="translate(-62.24 104.88)"/><path class="cls-2" d="M191.32-82.94h2.57l.23,1.34h.07a4.92,4.92,0,0,1,3.42-1.6c2.31,0,3.3,1.63,3.3,4.29v6.6h-3.15v-6.2c0-1.53-.41-2-1.32-2a2.68,2.68,0,0,0-2,1v7.17h-3.15Z" transform="translate(-62.24 104.88)"/><path class="cls-2" d="M203.47-76.34v-6.6h3.15v6.19c0,1.53.41,2,1.32,2a2.17,2.17,0,0,0,1.89-1.17v-7H213v10.63h-2.57l-.23-1.48h-.07a4.16,4.16,0,0,1-3.34,1.73C204.46-72.06,203.47-73.69,203.47-76.34Z" transform="translate(-62.24 104.88)"/><path class="cls-2" d="M215.13-77.62c0-3.45,2.45-5.58,5-5.58,3,0,4.53,2.2,4.53,5.1a6.91,6.91,0,0,1-.14,1.39h-6.35a2.55,2.55,0,0,0,2.75,2.25,4.42,4.42,0,0,0,2.3-.69l1,1.9a6.94,6.94,0,0,1-3.77,1.19A5.17,5.17,0,0,1,215.13-77.62ZM222-78.79c0-1.17-.51-2-1.77-2a2.11,2.11,0,0,0-2.07,2Z" transform="translate(-62.24 104.88)"/><path class="cls-2" d="M230.25-82.94h3.13l1,4.92c.19,1,.3,2.08.48,3.16H235c.18-1.08.37-2.15.63-3.16l1.16-4.92h2.73l1.2,4.92c.25,1,.44,2.08.66,3.16h.09c.18-1.08.3-2.11.49-3.16l1-4.92h2.91L243.3-72.31h-3.68l-1-4.25c-.19-1-.37-2-.57-3.11H238c-.19,1.15-.34,2.13-.54,3.12l-.93,4.24h-3.61Z" transform="translate(-62.24 104.88)"/><path class="cls-2" d="M247.5-86.14a1.68,1.68,0,0,1,1.83-1.65,1.68,1.68,0,0,1,1.82,1.65,1.68,1.68,0,0,1-1.82,1.64A1.68,1.68,0,0,1,247.5-86.14Zm.25,3.2h3.15v10.63h-3.15Z" transform="translate(-62.24 104.88)"/><path class="cls-2" d="M254.09-76.18v-4.29h-1.45v-2.35l1.62-.12.37-2.82h2.61v2.82h2.55v2.47h-2.55v4.26c0,1.2.55,1.68,1.37,1.68a3.18,3.18,0,0,0,1-.2l.5,2.29a7.45,7.45,0,0,1-2.36.38C255.13-72.06,254.09-73.71,254.09-76.18Z" transform="translate(-62.24 104.88)"/><path class="cls-2" d="M261.87-87.32H265v3.67l-.14,1.92a4.8,4.8,0,0,1,3.28-1.47c2.31,0,3.29,1.63,3.29,4.29v6.6H268.3v-6.2c0-1.53-.41-2-1.32-2a2.68,2.68,0,0,0-2,1v7.17h-3.15Z" transform="translate(-62.24 104.88)"/><path class="cls-2" d="M278-79.21c0-4.64,3.07-7.32,6.8-7.32a6,6,0,0,1,4.41,1.81l-1.67,2a3.64,3.64,0,0,0-2.63-1.11c-2.15,0-3.68,1.69-3.68,4.49s1.3,4.54,3.93,4.54a2.52,2.52,0,0,0,1.48-.42v-2.41h-2.31v-2.57h5.11v6.43a6.69,6.69,0,0,1-4.6,1.69C281-72.06,278-74.51,278-79.21Z" transform="translate(-62.24 104.88)"/><path class="cls-2" d="M291.44-77.62a5.21,5.21,0,0,1,5.17-5.58,5.22,5.22,0,0,1,5.18,5.58,5.21,5.21,0,0,1-5.18,5.56A5.2,5.2,0,0,1,291.44-77.62Zm7.12,0c0-1.84-.64-3-1.95-3s-1.95,1.2-1.95,3,.65,3,1.95,3S298.56-75.78,298.56-77.62Z" transform="translate(-62.24 104.88)"/><path class="cls-2" d="M303.33-77.62a5.21,5.21,0,0,1,5.17-5.58,5.22,5.22,0,0,1,5.18,5.58,5.21,5.21,0,0,1-5.18,5.56A5.2,5.2,0,0,1,303.33-77.62Zm7.12,0c0-1.84-.64-3-1.95-3s-1.95,1.2-1.95,3,.65,3,1.95,3S310.45-75.78,310.45-77.62Z" transform="translate(-62.24 104.88)"/><path class="cls-2" d="M315.18-70.49a2.48,2.48,0,0,1,1.51-2.14v-.08a2.07,2.07,0,0,1-1-1.81,2.61,2.61,0,0,1,1.18-2v-.08a3.41,3.41,0,0,1-1.42-2.76c0-2.55,2.1-3.85,4.39-3.85a5.33,5.33,0,0,1,1.65.26h3.89v2.29H323.7a2.8,2.8,0,0,1,.36,1.4c0,2.45-1.86,3.58-4.19,3.58a4.67,4.67,0,0,1-1.3-.21.93.93,0,0,0-.37.79c0,.52.43.78,1.59.78h1.73c2.6,0,4.06.8,4.06,2.7,0,2.21-2.3,3.82-5.95,3.82C317.16-67.79,315.18-68.6,315.18-70.49Zm7.38-.58c0-.67-.57-.83-1.62-.83h-1.1a5.84,5.84,0,0,1-1.49-.13,1.35,1.35,0,0,0-.58,1c0,.81.94,1.22,2.36,1.22S322.56-70.34,322.56-71.07Zm-1.24-8.28c0-1.13-.61-1.73-1.45-1.73s-1.45.59-1.45,1.73.62,1.77,1.45,1.77S321.32-78.19,321.32-79.35Z" transform="translate(-62.24 104.88)"/><path class="cls-2" d="M327.27-75.62v-11.7h3.15v11.83c0,.68.32.89.57.89a1.51,1.51,0,0,0,.39,0l.37,2.32a4,4,0,0,1-1.58.26C328-72.06,327.27-73.46,327.27-75.62Z" transform="translate(-62.24 104.88)"/><path class="cls-2" d="M332.78-77.62c0-3.45,2.46-5.58,5-5.58,3,0,4.52,2.2,4.52,5.1a7.07,7.07,0,0,1-.13,1.39h-6.36a2.57,2.57,0,0,0,2.76,2.25,4.42,4.42,0,0,0,2.3-.69l1,1.9a6.94,6.94,0,0,1-3.77,1.19A5.18,5.18,0,0,1,332.78-77.62Zm6.85-1.17c0-1.17-.5-2-1.76-2a2.11,2.11,0,0,0-2.07,2Z" transform="translate(-62.24 104.88)"/><path class="cls-3" d="M95.6-76.21,94.47-72l-4.16.09a16.32,16.32,0,0,1-2-7.75,16.22,16.22,0,0,1,1.83-7.51h0l3.7.68,1.62,3.68A9.68,9.68,0,0,0,95-79.62,9.87,9.87,0,0,0,95.6-76.21Z" transform="translate(-62.24 104.88)"/><path class="cls-4" d="M120.76-82.67a17,17,0,0,1,.28,3,16.64,16.64,0,0,1-.35,3.41,16.39,16.39,0,0,1-5.76,9.34h0l-4.66-.23-.66-4.12a9.77,9.77,0,0,0,4.19-5h-8.74v-6.46h15.7Z" transform="translate(-62.24 104.88)"/><path class="cls-5" d="M114.93-66.88h0a16.27,16.27,0,0,1-10.23,3.59,16.33,16.33,0,0,1-14.39-8.59l5.29-4.34a9.73,9.73,0,0,0,9.1,6.31,9.73,9.73,0,0,0,4.91-1.33Z" transform="translate(-62.24 104.88)"/><path class="cls-6" d="M115.13-92.2l-5.29,4.34a9.67,9.67,0,0,0-5.14-1.47,9.71,9.71,0,0,0-9.19,6.56l-5.32-4.36h0A16.33,16.33,0,0,1,104.7-96,16.26,16.26,0,0,1,115.13-92.2Z" transform="translate(-62.24 104.88)"/></g></svg>