<svg id="Layer_1" data-name="Layer 1" xmlns="http://www.w3.org/2000/svg" viewBox="0 0 206.67 44.96"><defs><style>.cls-1,.cls-3{fill:#fff;}.cls-2{fill:#ee8122;}.cls-3{font-size:26.51px;letter-spacing:-0.07em;}.cls-3,.cls-6{font-family:Montserrat-Bold, Montserrat;font-weight:700;}.cls-4{letter-spacing:-0.08em;}.cls-5{letter-spacing:-0.11em;}.cls-6{font-size:16.67px;fill:#ed8222;letter-spacing:-0.07em;}</style></defs><title>logo</title><rect class="cls-1" x="-720.63" y="199.03" width="14.9" height="14.9" rx="1.5" transform="translate(399.73 -629.74) rotate(-43.34)"/><path class="cls-2" d="M-723.69,202.51h4.22a2,2,0,0,1,2,2v27.37a1.47,1.47,0,0,1-1.47,1.47h-3.81a2.95,2.95,0,0,1-2.95-2.95V204.52a2,2,0,0,1,2-2Z" transform="translate(381.12 -637.17) rotate(-44.08)"/><path class="cls-2" d="M-706.32,202.66h3.81a1.47,1.47,0,0,1,1.47,1.47V231.5a2,2,0,0,1-2,2h-4.22a2,2,0,0,1-2-2V205.61A2.95,2.95,0,0,1-706.32,202.66Z" transform="translate(-612.92 -339.65) rotate(-133.52)"/><rect class="cls-1" x="-726.3" y="212.6" width="5.35" height="31.44" rx="1.31" transform="translate(372.56 -636.08) rotate(-44.15)"/><rect class="cls-1" x="-706.36" y="211.89" width="5.35" height="33.47" rx="1.31" transform="translate(-617.71 -321.47) rotate(-133.46)"/><text class="cls-3" transform="translate(50.24 22.87)">MICRO<tspan class="cls-4" x="85.36" y="0">D</tspan><tspan class="cls-5" x="105.01" y="0">AT</tspan><tspan x="135.87" y="0">A</tspan></text><text class="cls-6" transform="translate(50.61 37.61)">INDONESIA</text></svg>