<svg id="Layer_1" data-name="Layer 1" xmlns="http://www.w3.org/2000/svg" viewBox="0 0 206.63 44.96"><defs><style>.cls-1,.cls-3,.cls-4,.cls-5{fill:#232f3e;}.cls-2,.cls-3,.cls-4,.cls-5,.cls-7{isolation:isolate;}.cls-3,.cls-4,.cls-5{font-size:26.51px;}.cls-3,.cls-4,.cls-5,.cls-7{font-family:Montserrat-Bold, Montserrat;font-weight:700;}.cls-3{letter-spacing:-0.07em;}.cls-4{letter-spacing:-0.08em;}.cls-5{letter-spacing:-0.14em;}.cls-6{letter-spacing:-0.11em;}.cls-7{font-size:16.67px;fill:#ed8222;letter-spacing:-0.07em;}</style></defs><title>logo-dark</title><rect class="cls-1" x="-67.93" y="-70.57" width="14.9" height="14.9" rx="1.5" transform="matrix(0.73, -0.69, 0.69, 0.73, 110, 14.3)"/><path class="cls-1" d="M-81.11-61.27l3-2.94a2,2,0,0,1,2.83,0l19,19.66a1.47,1.47,0,0,1,0,2.08L-59-39.77a3,3,0,0,1-4.17-.07h0l-18-18.59a2,2,0,0,1,0-2.83Z" transform="translate(83.18 73.03)"/><path class="cls-1" d="M-62.82-40l-2.62-2.76a1.47,1.47,0,0,1,0-2.08l19.85-18.85a2,2,0,0,1,2.82.08l2.91,3.06a2,2,0,0,1-.07,2.82L-58.66-39.95A2.94,2.94,0,0,1-62.82-40Z" transform="translate(83.18 73.03)"/><rect class="cls-1" x="-73.53" y="-56.96" width="5.35" height="31.44" rx="1.31" transform="translate(91.89 12.02) rotate(-44.15)"/><rect class="cls-1" x="-67.7" y="-43.65" width="33.47" height="5.35" rx="1.31" transform="translate(97.4 26.74) rotate(-43.46)"/><g class="cls-2"><text class="cls-3" transform="translate(50.19 22.88)">MICRO</text><text class="cls-4" transform="translate(135.55 22.88)">D</text><text class="cls-5" transform="translate(155.2 22.88)">A<tspan class="cls-6" x="16.46" y="0">T</tspan></text><text class="cls-3" transform="translate(186.06 22.88)">A</text></g><text class="cls-7" transform="translate(50.56 37.62)">INDONESIA</text></svg>