<svg id="Layer_1" data-name="Layer 1" xmlns="http://www.w3.org/2000/svg" viewBox="0 0 116.28 114.39"><defs><style>.cls-1{fill:#282828;}</style></defs><title>logo-down</title><rect class="cls-1" x="58.17" y="23.5" width="37.92" height="37.92" rx="3.82" transform="translate(-27.3 47.28) rotate(-43.34)"/><path class="cls-1" d="M50.37,32.35H61.1a5.1,5.1,0,0,1,5.1,5.1v69.63a3.74,3.74,0,0,1-3.74,3.74H52.77a7.5,7.5,0,0,1-7.5-7.5V37.45a5.1,5.1,0,0,1,5.1-5.1Z" transform="translate(-53.3 41.69) rotate(-44.08)"/><path class="cls-1" d="M94.58,32.72h9.69A3.74,3.74,0,0,1,108,36.46v69.63a5.1,5.1,0,0,1-5.1,5.1H92.18a5.1,5.1,0,0,1-5.1-5.1V40.22a7.5,7.5,0,0,1,7.5-7.5Z" transform="translate(93.33 175) rotate(-133.52)"/><rect class="cls-1" x="43.74" y="58.01" width="13.6" height="79.98" rx="3.34" transform="translate(-73.17 45.64) rotate(-44.15)"/><rect class="cls-1" x="94.48" y="56.2" width="13.6" height="85.16" rx="3.34" transform="translate(80.04 223) rotate(-133.46)"/></svg>